<svg xmlns="http://www.w3.org/2000/svg" fill="none" viewBox="-0.5 -0.5 14 14" height="14" width="14"><g id="calendar-mark--calendar-date-day-month-mark"><path id="Vector" stroke="#000000" stroke-linecap="round" stroke-linejoin="round" d="M3.7142857142857144 5.617857142857143h0.4642857142857143" stroke-width="1"></path><path id="Vector_2" stroke="#000000" stroke-linecap="round" stroke-linejoin="round" d="M3.7142857142857144 8.40357142857143h0.4642857142857143" stroke-width="1"></path><path id="Vector_3" stroke="#000000" stroke-linecap="round" stroke-linejoin="round" d="M6.267857142857143 5.617857142857143h0.4642857142857143" stroke-width="1"></path><path id="Vector_4" stroke="#000000" stroke-linecap="round" stroke-linejoin="round" d="M8.821428571428571 5.617857142857143h0.4642857142857143" stroke-width="1"></path><path id="Vector_5" stroke="#000000" stroke-linecap="round" stroke-linejoin="round" d="M6.267857142857143 8.40357142857143h0.4642857142857143" stroke-width="1"></path><path id="Intersect" stroke="#000000" stroke-linecap="round" stroke-linejoin="round" d="M1.1124285714285713 9.773214285714287c0.14950000000000002 1.3371428571428572 1.2359285714285715 2.3975714285714287 2.5795714285714286 2.4625714285714286 0.9285714285714286 0.044571428571428574 1.876642857142857 0.06778571428571428 2.9064285714285716 0.06778571428571428s1.9778571428571428 -0.023214285714285715 2.9064285714285716 -0.06778571428571428c1.3436428571428571 -0.065 2.4300714285714284 -1.126357142857143 2.5795714285714286 -2.4625714285714286 0.10121428571428571 -0.9007142857142857 0.18385714285714289 -1.8227857142857145 0.18385714285714289 -2.7625 0 -0.9406428571428571 -0.08357142857142857 -1.8627142857142855 -0.18385714285714289 -2.7634285714285713 -0.14950000000000002 -1.3371428571428572 -1.2359285714285715 -2.3975714285714287 -2.5795714285714286 -2.4625714285714286 -0.9285714285714286 -0.044571428571428574 -1.876642857142857 -0.06778571428571428 -2.9064285714285716 -0.06778571428571428s-1.9778571428571428 0.023214285714285715 -2.9064285714285716 0.06778571428571428c-1.3436428571428571 0.065 -2.4300714285714284 1.126357142857143 -2.5795714285714286 2.4625714285714286C1.0112142857142856 5.148 0.9285714285714286 6.070071428571429 0.9285714285714286 7.010714285714286c0 0.9397142857142857 0.08357142857142857 1.8627142857142855 0.18385714285714289 2.7625Z" stroke-width="1"></path><path id="Line 3" stroke="#000000" stroke-linecap="round" stroke-linejoin="round" d="m3.949214285714286 0.6964285714285714 0 2.3214285714285716" stroke-width="1"></path><path id="Line 4" stroke="#000000" stroke-linecap="round" stroke-linejoin="round" d="m9.053571428571429 0.6964285714285714 0 2.3214285714285716" stroke-width="1"></path></g></svg>