<svg xmlns="http://www.w3.org/2000/svg" fill="none" viewBox="-0.5 -0.5 14 14" height="14" width="14"><g id="task-list--task-list-work"><path id="Intersect" stroke="#000000" stroke-linecap="round" stroke-linejoin="round" d="M11.490142857142859 10.292285714285715a60.66171428571429 60.66171428571429 0 0 0 0.0975 -5.355071428571429 1.7735714285714286 1.7735714285714286 0 0 0 -0.3407857142857143 -1.005642857142857c-0.8171428571428572 -1.1124285714285713 -1.4671428571428573 -1.8042142857142858 -2.5396428571428573 -2.6315714285714287a1.7438571428571428 1.7438571428571428 0 0 0 -1.0279285714285715 -0.3593571428571429A53.833 53.833 0 0 0 6.5 0.9285714285714286c-1.2600714285714285 0 -2.2768571428571427 0.037142857142857144 -3.3280000000000003 0.1105a1.7856428571428573 1.7856428571428573 0 0 0 -1.6621428571428571 1.668642857142857A60.64221428571429 60.64221428571429 0 0 0 1.3928571428571428 6.5c0 1.3 0.039928571428571424 2.5684285714285715 0.117 3.7922857142857143 0.055714285714285716 0.8951428571428571 0.767 1.607357142857143 1.6621428571428571 1.668642857142857C4.223142857142857 12.034285714285716 5.239928571428571 12.071428571428571 6.5 12.071428571428571c1.2600714285714285 0 2.2768571428571427 -0.037142857142857144 3.3280000000000003 -0.1105a1.7856428571428573 1.7856428571428573 0 0 0 1.6621428571428571 -1.668642857142857Z" stroke-width="1"></path><path id="Vector" stroke="#000000" stroke-linecap="round" stroke-linejoin="round" d="m3.4394285714285715 4.823 0.8542857142857143 0.7939285714285714c0.4020714285714286 -1.0409285714285714 0.7363571428571429 -1.4977857142857143 1.495 -2.117142857142857" stroke-width="1"></path><path id="Vector_2" stroke="#000000" stroke-linecap="round" stroke-linejoin="round" d="m3.4394285714285715 8.569785714285715 0.8542857142857143 0.7939285714285714c0.4020714285714286 -1.04 0.7363571428571429 -1.4977857142857143 1.495 -2.117142857142857" stroke-width="1"></path><path id="Vector_3" stroke="#000000" stroke-linecap="round" stroke-linejoin="round" d="m7.258642857142857 5.0022142857142855 2.3214285714285716 0" stroke-width="1"></path><path id="Vector_4" stroke="#000000" stroke-linecap="round" stroke-linejoin="round" d="m7.258642857142857 8.952357142857144 2.3214285714285716 0" stroke-width="1"></path></g></svg>